<?xml version="1.0" standalone="no"?>
<!DOCTYPE svg PUBLIC "-//W3C//DTD SVG 20010904//EN"
 "http://www.w3.org/TR/2001/REC-SVG-20010904/DTD/svg10.dtd">
<svg version="1.0" xmlns="http://www.w3.org/2000/svg"
 width="576.000000pt" height="576.000000pt" viewBox="0 0 576.000000 576.000000"
 preserveAspectRatio="xMidYMid meet">
<metadata>
Created by potrace 1.14, written by Peter Selinger 2001-2017
</metadata>
<g transform="translate(0.000000,576.000000) scale(0.100000,-0.100000)"
fill="#000000" stroke="none">
<path d="M1069 4805 c-5 -4 -72 -25 -131 -39 -30 -8 -122 -72 -165 -116 -24
-24 -57 -72 -75 -106 l-32 -62 -84 -1 c-46 0 -88 -3 -93 -6 -5 -4 -9 -3 -9 2
0 4 -30 7 -67 5 -38 -1 -90 -2 -118 -1 -70 1 -67 1 -99 -6 -77 -16 -138 -63
-173 -134 -17 -34 -18 -112 -20 -1461 -2 -968 1 -1441 8 -1475 6 -27 28 -87
50 -132 81 -169 255 -292 436 -308 42 -3 200 -6 243 -4 8 1 44 0 80 0 36 -1
117 -2 180 -2 63 0 120 0 125 0 6 -1 28 0 50 0 22 1 47 1 55 0 21 -1 117 0
160 2 19 1 41 1 48 1 15 -1 248 -1 265 0 6 0 41 0 77 -1 36 -1 116 -1 178 -1
62 0 116 -2 121 -4 4 -3 13 -1 19 3 7 4 33 5 57 1 25 -4 45 -4 45 -1 0 3 27 6
60 6 33 0 60 -2 60 -5 0 -3 73 -4 162 -2 90 2 192 2 228 1 36 0 72 -1 80 0 15
0 237 0 255 0 6 -1 28 0 50 0 22 1 47 1 55 0 21 -1 117 0 160 2 19 1 41 1 48
1 15 -1 248 -1 265 0 6 0 41 0 77 -1 36 -1 116 -1 178 -1 62 0 116 -2 121 -4
4 -3 13 -1 19 3 7 4 33 5 57 1 25 -4 45 -4 45 -1 0 3 27 6 60 6 33 0 60 -2 60
-5 0 -3 73 -4 162 -2 90 2 192 2 228 1 36 0 72 -1 80 0 15 0 237 0 255 0 6 -1
28 0 50 0 22 1 47 1 55 0 21 -1 117 0 160 2 19 1 42 1 50 0 65 -3 233 -1 270
4 80 10 143 55 190 134 13 23 15 231 17 1768 3 1639 2 1743 -15 1782 -21 50
-73 106 -115 124 -68 30 -85 35 -90 30 -4 -4 -146 -5 -262 -2 -5 1 -28 0 -50
0 -22 -1 -47 -1 -55 0 -21 1 -117 0 -160 -2 -19 -1 -41 -1 -47 -1 -16 1 -249
1 -265 0 -7 0 -42 0 -78 1 -36 0 -72 0 -80 0 -8 0 -75 0 -148 1 -73 0 -137 -2
-142 -5 -6 -3 -10 -3 -10 2 0 4 -25 8 -55 8 -30 0 -55 -3 -55 -6 0 -3 -22 -3
-50 1 -27 3 -54 4 -60 0 -6 -4 -32 -4 -58 -1 -26 3 -81 4 -122 1 -41 -3 -96
-2 -122 1 -26 3 -52 2 -58 -1 -6 -4 -31 -4 -55 0 -25 4 -45 4 -45 1 0 -3 -27
-6 -60 -6 -33 0 -60 2 -60 5 0 3 -30 4 -67 3 -147 -5 -323 -4 -331 1 -4 2 -14
1 -20 -3 -7 -4 -33 -5 -57 -1 -25 4 -45 4 -45 1 0 -3 -27 -6 -60 -6 -33 0 -60
2 -60 5 0 6 -438 2 -462 -4 -10 -2 -18 -1 -18 2 0 4 -25 7 -55 7 -30 0 -55 -4
-55 -8 0 -5 -4 -6 -8 -3 -7 4 -70 7 -112 5 -8 0 -69 0 -135 0 -66 0 -127 0
-135 0 -8 -1 -44 0 -80 0 -103 2 -292 2 -330 1 -19 -1 -42 -2 -50 -1 -45 3
-144 0 -152 -5 -4 -3 -8 -1 -8 3 0 5 -27 6 -60 3 -33 -3 -61 -2 -63 3 -1 4 -5
6 -8 2z m133 -489 c3 2 54 4 114 4 112 -1 135 -1 157 1 6 1 57 1 112 0 141 -2
262 -2 315 0 25 0 50 1 55 0 6 0 55 0 110 0 55 -1 152 -1 215 -2 112 0 126 0
153 2 6 1 68 1 137 0 69 0 132 0 140 0 8 0 80 0 160 0 80 0 152 0 160 0 8 0
80 0 160 0 80 0 152 0 160 0 8 0 80 0 160 0 80 0 152 0 160 0 8 0 69 0 135 0
213 -2 289 -2 335 0 25 0 50 1 55 0 6 0 55 0 110 0 55 -1 152 -1 215 -2 112 0
126 0 153 2 6 1 57 1 112 0 141 -2 262 -2 315 0 25 0 52 0 60 0 8 0 38 -1 67
-1 43 0 52 -3 52 -17 0 -10 0 -76 0 -148 0 -71 0 -137 0 -145 0 -8 0 -80 0
-160 0 -80 0 -152 0 -160 0 -8 0 -80 0 -160 0 -80 0 -152 0 -160 0 -8 0 -80 0
-160 0 -80 0 -152 0 -160 0 -8 0 -80 0 -160 0 -80 0 -152 0 -160 0 -8 0 -80 0
-160 0 -80 0 -152 0 -160 0 -8 0 -80 0 -160 0 -80 0 -152 0 -160 0 -8 0 -80 0
-160 0 -80 0 -154 0 -165 0 -175 -1 -242 0 -252 0 -7 1 -24 2 -38 1 -14 -1
-28 -3 -31 -4 -4 -71 -5 -118 -3 -8 1 -31 0 -50 -1 -19 0 -80 -1 -135 -1 -362
3 -336 3 -367 0 -7 -1 -69 -1 -138 0 -69 0 -132 0 -140 0 -8 0 -80 0 -160 0
-80 0 -152 0 -160 0 -8 0 -69 0 -135 0 -213 2 -289 2 -335 0 -25 0 -49 -1 -55
0 -16 0 -208 0 -225 0 -8 -1 -44 -1 -80 0 -84 2 -223 2 -280 0 -25 0 -49 -1
-55 0 -16 0 -209 0 -225 0 -8 -1 -55 -1 -105 0 -49 0 -97 0 -105 0 -8 0 -80 0
-160 0 -80 0 -152 0 -160 -1 -8 0 -35 1 -60 2 -60 2 -269 2 -302 -1 -7 -1 -58
-1 -113 0 -141 2 -262 2 -320 0 -27 0 -54 -1 -60 0 -5 0 -34 2 -64 3 l-54 3 2
150 c3 179 2 145 2 285 -1 63 -1 160 -2 215 0 55 0 105 0 110 -1 6 0 30 0 55
2 46 2 122 0 335 0 66 0 127 0 135 0 8 0 56 0 105 -1 50 -1 97 0 105 0 16 0
209 0 225 -1 6 0 30 0 55 2 46 2 122 0 335 0 66 0 127 0 135 0 8 0 56 0 105
-1 50 -1 97 0 105 0 13 0 198 0 225 0 6 0 30 1 55 1 25 1 50 0 55 -1 6 -2 27
-1 47 1 40 18 51 57 37 12 -4 24 -6 26 -3z m-596 -318 c30 0 34 -3 35 -26 1
-15 1 -31 0 -35 -1 -8 -1 -176 0 -217 0 -8 0 -35 0 -60 -2 -148 -1 -172 5
-181 3 -5 2 -9 -3 -9 -4 0 -7 -24 -5 -52 4 -70 4 -66 3 -118 0 -25 -1 -52 0
-60 0 -8 0 -35 0 -60 -2 -148 -1 -172 5 -181 3 -5 2 -9 -3 -9 -4 0 -7 -21 -5
-47 1 -27 2 -66 1 -88 0 -22 0 -47 0 -55 0 -8 0 -37 0 -65 0 -27 0 -57 0 -65
2 -55 -1 -145 -5 -152 -3 -4 -1 -8 4 -8 6 0 8 -8 6 -17 -7 -33 -9 -143 -3
-143 4 0 5 -8 3 -17 -7 -33 -9 -143 -3 -143 4 0 5 -8 3 -17 -8 -36 -9 -143 -1
-143 4 0 5 -5 2 -10 -3 -6 -6 -63 -5 -128 0 -64 1 -125 1 -134 0 -10 0 -38 0
-63 0 -25 0 -53 0 -62 -1 -34 0 -108 1 -118 1 -6 -6 -22 -16 -37 -29 -44 -92
-47 -128 -6 -15 18 -20 68 -18 203 0 11 0 34 -1 50 0 17 0 37 0 45 0 8 0 71 0
140 -1 69 -1 131 0 138 2 26 2 42 2 182 0 80 0 154 0 165 0 11 0 70 0 130 0
61 1 115 1 120 0 6 0 28 -1 50 -1 22 -2 82 -2 134 0 52 -2 98 -5 103 -3 4 -2
8 3 8 4 0 7 44 5 97 -1 54 -2 121 -1 148 0 28 0 59 0 70 -5 82 -5 165 -1 165
4 0 4 67 0 230 -1 25 -1 101 0 170 1 70 1 130 -1 135 -6 33 3 44 39 47 20 2
41 2 45 0 5 -2 24 -4 43 -4z"/>
<path d="M1685 3833 c-80 -27 -87 -56 -85 -348 1 -66 0 -136 0 -155 -1 -19 -2
-42 -1 -50 0 -8 0 -37 0 -65 0 -27 0 -57 0 -65 1 -8 1 -33 0 -55 0 -22 -1 -46
0 -52 0 -7 0 -66 0 -130 0 -65 0 -131 1 -147 2 -83 71 -137 158 -126 26 3 63
3 82 0 19 -3 48 -3 64 0 16 3 70 3 120 0 50 -3 111 -3 136 0 25 3 68 3 96 0
28 -3 63 -3 78 1 14 4 26 4 26 -1 0 -5 11 -5 25 -2 13 4 66 5 117 2 51 -3 113
-3 138 0 25 3 80 3 123 0 43 -3 81 -3 83 -1 2 2 25 4 52 3 284 -9 305 6 301
218 0 36 0 72 0 80 0 8 0 44 0 80 -1 36 -1 72 0 80 0 8 0 44 0 80 -1 36 -1 72
0 80 0 8 0 44 0 80 -1 36 -1 72 0 80 0 8 0 44 0 80 -1 36 -1 72 0 80 3 62 -1
165 -8 183 -17 44 -59 71 -114 75 -68 4 -139 2 -149 -4 -4 -3 -8 -1 -8 3 0 5
-27 6 -60 3 -33 -3 -60 -3 -60 0 0 6 -437 3 -462 -4 -10 -2 -18 -1 -18 2 0 7
-193 5 -222 -2 -10 -2 -18 -1 -18 2 0 6 -55 6 -145 1 -11 0 -48 0 -83 1 -35 1
-65 0 -68 -3 -3 -3 -18 -2 -32 2 -17 5 -43 3 -67 -6z m608 -393 c34 1 69 1 77
1 8 0 47 0 85 0 39 0 93 0 120 0 28 0 89 -1 138 -1 84 -1 93 -4 88 -34 -1 -4
-2 -89 -2 -187 l0 -179 -37 -1 c-20 -1 -40 -1 -43 -1 -3 1 -26 2 -50 2 -37 1
-86 2 -274 1 -11 0 -85 0 -165 0 -80 0 -163 0 -184 -1 -47 -1 -54 8 -47 62 3
23 4 79 1 126 -3 46 -3 86 0 88 2 3 3 31 2 64 l-2 59 101 0 c56 0 104 2 107 5
2 3 9 3 14 0 5 -4 37 -5 71 -4z"/>
<path d="M3669 3846 c-2 -2 -20 -6 -39 -9 -74 -9 -115 -63 -108 -143 2 -24 1
-44 -2 -44 -6 0 -3 -132 5 -185 10 -68 46 -98 119 -102 28 -1 103 -3 166 -3
63 0 153 0 200 0 47 0 105 0 130 1 25 0 50 1 55 0 6 0 55 0 110 0 249 -1 279
-2 287 -7 4 -3 8 -2 8 3 0 4 22 6 49 5 80 -6 135 30 148 97 7 37 9 141 3 141
-3 0 -4 33 -3 72 2 80 -13 124 -49 147 -24 15 -100 22 -258 21 -52 0 -124 0
-160 1 -36 1 -72 1 -80 0 -8 0 -44 0 -80 0 -36 1 -72 1 -80 0 -8 0 -44 0 -80
0 -36 1 -72 1 -80 0 -65 -3 -242 -1 -249 3 -5 3 -10 4 -12 2z"/>
<path d="M3795 3122 c-2 -2 -45 -3 -97 -4 -79 0 -98 -3 -125 -21 -37 -25 -57
-72 -51 -123 2 -19 2 -34 -2 -34 -5 0 -4 -55 3 -177 2 -42 8 -58 31 -82 38
-40 84 -47 261 -40 6 1 51 1 100 0 50 0 97 0 105 0 14 0 280 0 325 0 11 0 72
0 135 0 63 0 142 0 174 0 98 -2 155 55 144 145 -2 19 -2 34 2 34 5 0 4 55 -3
177 -3 63 -39 107 -95 118 -44 9 -158 9 -172 0 -5 -3 -10 -2 -10 4 0 5 -11 6
-25 3 -13 -4 -66 -5 -117 -2 -51 3 -113 3 -138 0 -25 -3 -68 -3 -96 0 -28 3
-63 3 -78 -1 -14 -4 -26 -4 -26 1 0 5 -11 5 -25 2 -13 -4 -67 -5 -120 -2 -53
3 -98 4 -100 2z"/>
<path d="M1754 2399 c-93 -7 -127 -25 -144 -76 -7 -18 -10 -48 -9 -67 2 -19 1
-37 -2 -40 -3 -3 -3 -28 1 -56 4 -27 3 -50 0 -50 -10 0 7 -111 21 -137 19 -36
66 -52 147 -50 39 1 72 0 72 -3 0 -6 197 -2 223 4 9 2 17 1 17 -2 0 -7 193 -5
223 2 9 2 17 1 17 -2 0 -4 73 -6 162 -4 90 2 192 2 228 1 36 0 72 -1 80 0 8 0
44 0 80 0 76 -1 63 -1 170 3 87 3 130 21 145 58 13 32 22 101 14 106 -5 3 -7
9 -4 14 6 9 7 100 2 178 -2 43 -8 58 -35 85 -31 31 -36 32 -125 35 -50 2 -112
2 -137 2 -25 -1 -49 -2 -55 -1 -16 0 -209 0 -225 0 -8 -1 -55 -1 -105 0 -49 0
-97 0 -105 0 -8 0 -69 0 -135 0 -330 2 -377 2 -383 -3 -2 -2 -16 -1 -30 3 -15
4 -64 4 -108 0z"/>
<path d="M3767 2403 c-4 -3 -37 -5 -75 -4 -78 2 -116 -9 -142 -42 -24 -29 -30
-62 -30 -172 -1 -163 3 -192 30 -221 43 -45 34 -44 330 -45 63 0 120 0 125 0
6 -1 28 0 50 0 22 1 47 1 55 0 8 0 38 0 65 0 28 0 57 0 65 0 8 0 33 0 55 0 22
1 47 1 55 0 21 -1 117 0 160 2 19 1 42 1 50 0 37 -2 129 0 147 3 59 12 97 70
91 142 -2 24 -1 44 2 44 6 0 3 132 -5 185 -10 67 -46 98 -119 102 -28 2 -98 3
-156 2 -58 0 -125 0 -150 1 -25 1 -52 2 -60 2 -8 -1 -80 -1 -160 -1 -80 0
-152 0 -160 0 -63 -2 -205 1 -210 4 -4 3 -10 2 -13 -2z"/>
</g>
</svg>
